<svg width="91" height="89" viewBox="0 0 91 89" fill="none" xmlns="http://www.w3.org/2000/svg">
<circle cx="7.58301" cy="6.33203" r="3" fill="#F3D0D2"/>
<circle cx="22.75" cy="6.33203" r="3" fill="#F3D0D2"/>
<circle cx="37.917" cy="6.33203" r="3" fill="#F3D0D2"/>
<circle cx="53.083" cy="6.33203" r="3" fill="#F3D0D2"/>
<circle cx="68.25" cy="6.33203" r="3" fill="#F3D0D2"/>
<circle cx="83.417" cy="6.33203" r="3" fill="#F3D0D2"/>
<circle cx="7.58301" cy="19" r="3" fill="#F3D0D2"/>
<circle cx="22.75" cy="19" r="3" fill="#F3D0D2"/>
<circle cx="37.917" cy="19" r="3" fill="#F3D0D2"/>
<circle cx="53.083" cy="19" r="3" fill="#F3D0D2"/>
<circle cx="68.25" cy="19" r="3" fill="#F3D0D2"/>
<circle cx="83.417" cy="19" r="3" fill="#F3D0D2"/>
<circle cx="7.58301" cy="31.668" r="3" fill="#F3D0D2"/>
<circle cx="22.75" cy="31.668" r="3" fill="#F3D0D2"/>
<circle cx="37.917" cy="31.668" r="3" fill="#F3D0D2"/>
<circle cx="53.083" cy="31.668" r="3" fill="#F3D0D2"/>
<circle cx="68.25" cy="31.668" r="3" fill="#F3D0D2"/>
<circle cx="83.417" cy="31.668" r="3" fill="#F3D0D2"/>
<circle cx="7.58301" cy="44.332" r="3" fill="#F3D0D2"/>
<circle cx="22.75" cy="44.332" r="3" fill="#F3D0D2"/>
<circle cx="37.917" cy="44.332" r="3" fill="#F3D0D2"/>
<circle cx="53.083" cy="44.332" r="3" fill="#F3D0D2"/>
<circle cx="68.25" cy="44.332" r="3" fill="#F3D0D2"/>
<circle cx="83.417" cy="44.332" r="3" fill="#F3D0D2"/>
<circle cx="7.58301" cy="57" r="3" fill="#F3D0D2"/>
<circle cx="22.75" cy="57" r="3" fill="#F3D0D2"/>
<circle cx="37.917" cy="57" r="3" fill="#F3D0D2"/>
<circle cx="53.083" cy="57" r="3" fill="#F3D0D2"/>
<circle cx="68.25" cy="57" r="3" fill="#F3D0D2"/>
<circle cx="83.417" cy="57" r="3" fill="#F3D0D2"/>
<circle cx="7.58301" cy="69.668" r="3" fill="#F3D0D2"/>
<circle cx="22.75" cy="69.668" r="3" fill="#F3D0D2"/>
<circle cx="37.917" cy="69.668" r="3" fill="#F3D0D2"/>
<circle cx="53.083" cy="69.668" r="3" fill="#F3D0D2"/>
<circle cx="68.25" cy="69.668" r="3" fill="#F3D0D2"/>
<circle cx="83.417" cy="69.668" r="3" fill="#F3D0D2"/>
</svg>
